<svg width="49" height="48" viewBox="0 0 49 48" fill="none" xmlns="http://www.w3.org/2000/svg">
<path d="M42.6402 0C40.9942 0 39.3325 0.672869 38.0862 1.94051L13.1049 26.9728L11.8763 28.1624C10.3997 28.4427 8.99191 29.1797 7.87555 30.4153C6.23743 32.2376 5.91454 34.4665 5.29237 36.8596C4.66823 39.2547 3.87674 41.9221 1.96889 44.87L0 48H3.63063C11.3369 48 16.4205 44.2532 19.0135 41.6158L19.0726 41.5557C20.2579 40.3181 20.9194 38.7621 21.1655 37.174L22.15 36.2348L47.1312 11.2025V11.1404C48.328 9.91897 49 8.26486 49 6.54045C49 4.81603 48.328 3.16193 47.1312 1.94051C45.8849 0.672869 44.2842 0 42.6382 0H42.6402ZM42.6402 3.94309C43.2545 3.94309 43.8392 4.22345 44.363 4.75614C45.4163 5.82753 45.4163 7.25137 44.363 8.32475L26.58 26.2219L23.0124 22.5912L40.8544 4.75614C41.3781 4.22546 42.0239 3.94309 42.6402 3.94309ZM20.1791 25.4088L23.7487 29.0375L20.7954 31.9793L17.2258 28.3486L20.1791 25.4088ZM13.416 32.0394C14.4083 32.0714 15.4833 32.4619 16.3083 33.2289C17.8381 34.6508 17.8755 37.14 16.2453 38.7981C14.5383 40.5344 11.5081 42.7732 7.07815 43.6183C8.02322 41.5136 8.68476 39.5491 9.10807 37.923C9.76174 35.4117 10.2461 33.6895 10.7698 33.1028C11.455 32.3458 12.4237 32.0093 13.416 32.0414V32.0394Z" fill="black"/>
</svg>
