<svg width="35" height="50" viewBox="0 0 35 50" fill="none" xmlns="http://www.w3.org/2000/svg">
<path fill-rule="evenodd" clip-rule="evenodd" d="M0 0H34.9L30.8117 40.8778C30.5657 43.3383 29.4142 45.6196 27.5808 47.2789C25.7474 48.9382 23.3629 49.857 20.8901 49.8571H14.0098C11.5371 49.857 9.15259 48.9382 7.31919 47.2789C5.4858 45.6196 4.33432 43.3383 4.08828 40.8778L0 0ZM6.25707 12.4643L5.50921 4.98571H29.3908L28.6429 12.4643H6.25707ZM6.75564 17.45L9.04906 40.3818C9.17208 41.612 9.74782 42.7527 10.6645 43.5823C11.5812 44.4119 12.7735 44.8714 14.0098 44.8714H20.8901C22.1265 44.8714 23.3188 44.4119 24.2355 43.5823C25.1522 42.7527 25.7279 41.612 25.8509 40.3818L28.1443 17.45H6.75564Z" fill="black"/>
</svg>
